<svg xmlns="http://www.w3.org/2000/svg" xmlns:xlink="http://www.w3.org/1999/xlink" width="800" zoomAndPan="magnify" viewBox="0 0 600 135.000003" height="180" preserveAspectRatio="xMidYMid meet" version="1.0"><defs><g/><clipPath id="5f98af8f9f"><path d="M 108 35.359375 L 111 35.359375 L 111 49 L 108 49 Z M 108 35.359375 " clip-rule="nonzero"/></clipPath><clipPath id="3a103cf890"><path d="M 127 113 L 133 113 L 133 113.53125 L 127 113.53125 Z M 127 113 " clip-rule="nonzero"/></clipPath><clipPath id="04be83bd96"><path d="M 172.382812 110.445312 L 183.3125 110.445312 L 183.3125 112.164062 L 172.382812 112.164062 Z M 172.382812 110.445312 " clip-rule="nonzero"/></clipPath><clipPath id="1f8eb392a0"><path d="M 33.671875 110 L 47 110 L 47 113 L 33.671875 113 Z M 33.671875 110 " clip-rule="nonzero"/></clipPath><clipPath id="93b31cf58c"><path d="M 86 113 L 92 113 L 92 113.53125 L 86 113.53125 Z M 86 113 " clip-rule="nonzero"/></clipPath><clipPath id="c34363d48a"><rect x="0" width="376" y="0" height="58"/></clipPath></defs><path fill="#ffde59" d="M 109.664062 52.71875 C 109.242188 52.71875 108.902344 53.0625 108.902344 53.484375 L 108.902344 65.058594 C 108.902344 65.476562 109.242188 65.820312 109.664062 65.820312 C 110.085938 65.820312 110.425781 65.476562 110.425781 65.058594 L 110.425781 53.484375 C 110.425781 53.0625 110.085938 52.71875 109.664062 52.71875 " fill-opacity="1" fill-rule="nonzero"/><g clip-path="url(#5f98af8f9f)"><path fill="#ffde59" d="M 109.664062 35.359375 C 109.242188 35.359375 108.902344 35.703125 108.902344 36.121094 L 108.902344 47.695312 C 108.902344 48.117188 109.242188 48.460938 109.664062 48.460938 C 110.085938 48.460938 110.425781 48.117188 110.425781 47.695312 L 110.425781 36.121094 C 110.425781 35.703125 110.085938 35.359375 109.664062 35.359375 " fill-opacity="1" fill-rule="nonzero"/></g><path fill="#ffde59" d="M 109.664062 70.082031 C 109.242188 70.082031 108.902344 70.425781 108.902344 70.84375 L 108.902344 82.417969 C 108.902344 82.839844 109.242188 83.183594 109.664062 83.183594 C 110.085938 83.183594 110.425781 82.839844 110.425781 82.417969 L 110.425781 70.84375 C 110.425781 70.425781 110.085938 70.082031 109.664062 70.082031 " fill-opacity="1" fill-rule="nonzero"/><path fill="#ffde59" d="M 99.820312 53.664062 C 99.878906 54.039062 100.195312 54.308594 100.574219 54.308594 C 100.613281 54.308594 100.652344 54.304688 100.695312 54.300781 C 100.894531 54.269531 101.070312 54.160156 101.191406 53.996094 C 101.3125 53.832031 101.359375 53.628906 101.328125 53.425781 L 100.792969 50.019531 C 100.761719 49.820312 100.652344 49.640625 100.488281 49.523438 C 100.324219 49.402344 100.121094 49.351562 99.921875 49.382812 C 99.71875 49.417969 99.542969 49.523438 99.421875 49.691406 C 99.300781 49.855469 99.253906 50.054688 99.285156 50.257812 L 99.820312 53.664062 " fill-opacity="1" fill-rule="nonzero"/><path fill="#ffde59" d="M 107.222656 90.902344 C 107.15625 90.488281 106.765625 90.203125 106.347656 90.269531 C 106.148438 90.296875 105.972656 90.40625 105.851562 90.570312 C 105.730469 90.738281 105.683594 90.9375 105.714844 91.140625 L 106.25 94.546875 C 106.308594 94.921875 106.625 95.191406 107.003906 95.191406 C 107.042969 95.191406 107.082031 95.1875 107.121094 95.183594 C 107.324219 95.152344 107.5 95.042969 107.621094 94.878906 C 107.742188 94.714844 107.789062 94.511719 107.757812 94.3125 L 107.222656 90.902344 " fill-opacity="1" fill-rule="nonzero"/><path fill="#ffde59" d="M 105.277344 83.453125 C 105.078125 83.484375 104.898438 83.59375 104.78125 83.757812 C 104.660156 83.921875 104.609375 84.125 104.644531 84.324219 L 105.179688 87.734375 C 105.238281 88.105469 105.554688 88.378906 105.933594 88.378906 C 105.972656 88.378906 106.011719 88.375 106.050781 88.367188 C 106.25 88.335938 106.429688 88.230469 106.550781 88.066406 C 106.671875 87.898438 106.71875 87.699219 106.6875 87.496094 L 106.152344 84.089844 C 106.085938 83.675781 105.695312 83.390625 105.277344 83.453125 " fill-opacity="1" fill-rule="nonzero"/><path fill="#ffde59" d="M 104.207031 76.640625 C 104.003906 76.671875 103.828125 76.777344 103.707031 76.945312 C 103.589844 77.109375 103.539062 77.308594 103.570312 77.511719 L 104.109375 80.917969 C 104.164062 81.292969 104.484375 81.566406 104.859375 81.566406 C 104.898438 81.566406 104.9375 81.5625 104.980469 81.554688 C 105.179688 81.523438 105.359375 81.414062 105.476562 81.25 C 105.597656 81.085938 105.644531 80.882812 105.617188 80.683594 L 105.078125 77.277344 C 105.046875 77.074219 104.9375 76.898438 104.773438 76.777344 C 104.609375 76.65625 104.40625 76.605469 104.207031 76.640625 " fill-opacity="1" fill-rule="nonzero"/><path fill="#ffde59" d="M 100.992188 56.199219 C 100.792969 56.230469 100.613281 56.335938 100.492188 56.503906 C 100.371094 56.667969 100.324219 56.871094 100.359375 57.070312 L 100.890625 60.476562 C 100.953125 60.851562 101.269531 61.121094 101.644531 61.121094 C 101.683594 61.121094 101.726562 61.121094 101.765625 61.113281 C 101.964844 61.082031 102.144531 60.972656 102.261719 60.808594 C 102.382812 60.644531 102.433594 60.441406 102.398438 60.242188 L 101.863281 56.835938 C 101.800781 56.421875 101.410156 56.132812 100.992188 56.199219 " fill-opacity="1" fill-rule="nonzero"/><path fill="#ffde59" d="M 103.136719 69.828125 C 102.933594 69.855469 102.757812 69.964844 102.636719 70.128906 C 102.515625 70.296875 102.464844 70.496094 102.5 70.699219 L 103.035156 74.105469 C 103.09375 74.480469 103.410156 74.75 103.789062 74.75 C 103.828125 74.75 103.871094 74.75 103.90625 74.742188 C 104.109375 74.710938 104.285156 74.601562 104.40625 74.4375 C 104.527344 74.269531 104.574219 74.070312 104.542969 73.867188 L 104.007812 70.460938 C 103.941406 70.046875 103.550781 69.761719 103.136719 69.828125 " fill-opacity="1" fill-rule="nonzero"/><path fill="#ffde59" d="M 102.0625 63.011719 C 101.863281 63.042969 101.683594 63.152344 101.566406 63.316406 C 101.445312 63.480469 101.398438 63.683594 101.425781 63.882812 L 101.964844 67.292969 C 102.023438 67.664062 102.339844 67.9375 102.71875 67.9375 C 102.757812 67.9375 102.796875 67.933594 102.835938 67.925781 C 103.039062 67.894531 103.214844 67.789062 103.335938 67.621094 C 103.453125 67.457031 103.503906 67.257812 103.472656 67.054688 L 102.9375 63.648438 C 102.90625 63.445312 102.796875 63.269531 102.632812 63.148438 C 102.464844 63.027344 102.265625 62.980469 102.0625 63.011719 " fill-opacity="1" fill-rule="nonzero"/><path fill="#ffde59" d="M 99.996094 84.070312 C 100.097656 84.386719 100.390625 84.597656 100.722656 84.597656 C 100.800781 84.597656 100.882812 84.585938 100.960938 84.5625 C 101.359375 84.429688 101.578125 84 101.449219 83.601562 L 97.871094 72.59375 C 97.742188 72.195312 97.3125 71.972656 96.910156 72.101562 C 96.71875 72.164062 96.558594 72.300781 96.464844 72.480469 C 96.375 72.664062 96.355469 72.871094 96.421875 73.066406 L 99.996094 84.070312 " fill-opacity="1" fill-rule="nonzero"/><path fill="#ffde59" d="M 89.265625 51.046875 C 89.371094 51.363281 89.660156 51.578125 89.992188 51.578125 C 90.074219 51.578125 90.152344 51.5625 90.230469 51.539062 C 90.628906 51.410156 90.851562 50.976562 90.71875 50.578125 L 87.140625 39.570312 C 87.011719 39.167969 86.582031 38.949219 86.179688 39.078125 C 85.78125 39.210938 85.5625 39.640625 85.691406 40.042969 L 89.265625 51.046875 " fill-opacity="1" fill-rule="nonzero"/><path fill="#ffde59" d="M 94.632812 67.5625 C 94.734375 67.875 95.027344 68.089844 95.359375 68.089844 C 95.4375 68.089844 95.519531 68.074219 95.59375 68.050781 C 95.996094 67.917969 96.214844 67.488281 96.082031 67.089844 L 92.507812 56.078125 C 92.378906 55.679688 91.945312 55.460938 91.546875 55.589844 C 91.351562 55.652344 91.195312 55.789062 91.101562 55.972656 C 91.007812 56.152344 90.992188 56.359375 91.054688 56.554688 L 94.632812 67.5625 " fill-opacity="1" fill-rule="nonzero"/><path fill="#ffde59" d="M 90.097656 74.136719 C 90.03125 74.332031 90.046875 74.539062 90.140625 74.71875 L 91.703125 77.785156 C 91.835938 78.039062 92.09375 78.199219 92.382812 78.199219 C 92.503906 78.199219 92.625 78.171875 92.730469 78.117188 C 92.910156 78.023438 93.046875 77.867188 93.109375 77.671875 C 93.171875 77.480469 93.15625 77.273438 93.0625 77.089844 L 91.5 74.027344 C 91.3125 73.652344 90.851562 73.503906 90.472656 73.695312 C 90.292969 73.785156 90.160156 73.945312 90.097656 74.136719 " fill-opacity="1" fill-rule="nonzero"/><path fill="#ffde59" d="M 89.261719 72.070312 C 89.378906 72.070312 89.5 72.042969 89.605469 71.988281 C 89.980469 71.796875 90.132812 71.335938 89.941406 70.960938 L 88.378906 67.898438 C 88.1875 67.523438 87.726562 67.375 87.351562 67.566406 C 86.976562 67.753906 86.828125 68.214844 87.019531 68.589844 L 88.582031 71.65625 C 88.710938 71.914062 88.972656 72.070312 89.261719 72.070312 " fill-opacity="1" fill-rule="nonzero"/><path fill="#ffde59" d="M 85.457031 65.527344 C 85.589844 65.78125 85.847656 65.941406 86.136719 65.941406 C 86.257812 65.941406 86.378906 65.914062 86.484375 65.859375 C 86.667969 65.765625 86.800781 65.609375 86.863281 65.414062 C 86.925781 65.222656 86.910156 65.015625 86.816406 64.832031 L 85.257812 61.769531 C 85.164062 61.585938 85.007812 61.449219 84.8125 61.386719 C 84.617188 61.328125 84.410156 61.339844 84.226562 61.433594 C 83.855469 61.625 83.703125 62.085938 83.894531 62.460938 L 85.457031 65.527344 " fill-opacity="1" fill-rule="nonzero"/><path fill="#ffde59" d="M 93.597656 79.820312 C 93.222656 80.015625 93.074219 80.472656 93.265625 80.847656 L 94.828125 83.914062 C 94.957031 84.171875 95.21875 84.328125 95.507812 84.328125 C 95.625 84.328125 95.746094 84.300781 95.851562 84.246094 C 96.226562 84.058594 96.378906 83.59375 96.1875 83.21875 L 94.625 80.15625 C 94.433594 79.78125 93.972656 79.632812 93.597656 79.820312 " fill-opacity="1" fill-rule="nonzero"/><path fill="#ffde59" d="M 97.949219 90.042969 C 98.078125 90.296875 98.339844 90.460938 98.628906 90.460938 C 98.75 90.460938 98.871094 90.429688 98.976562 90.375 C 99.351562 90.183594 99.5 89.726562 99.308594 89.347656 L 97.746094 86.285156 C 97.65625 86.101562 97.496094 85.96875 97.300781 85.90625 C 97.109375 85.84375 96.902344 85.859375 96.722656 85.953125 C 96.347656 86.144531 96.195312 86.605469 96.386719 86.976562 L 97.949219 90.042969 " fill-opacity="1" fill-rule="nonzero"/><path fill="#ffde59" d="M 82.335938 59.398438 C 82.464844 59.65625 82.726562 59.8125 83.015625 59.8125 C 83.132812 59.8125 83.253906 59.785156 83.359375 59.730469 C 83.734375 59.539062 83.886719 59.078125 83.695312 58.703125 L 82.132812 55.636719 C 81.941406 55.265625 81.480469 55.113281 81.105469 55.304688 C 80.730469 55.496094 80.582031 55.957031 80.773438 56.332031 L 82.335938 59.398438 " fill-opacity="1" fill-rule="nonzero"/><path fill="#ffde59" d="M 101.753906 96.589844 C 101.871094 96.589844 101.992188 96.558594 102.097656 96.507812 C 102.28125 96.414062 102.414062 96.253906 102.476562 96.0625 C 102.542969 95.867188 102.523438 95.660156 102.433594 95.476562 L 100.871094 92.414062 C 100.777344 92.230469 100.621094 92.097656 100.425781 92.035156 C 100.234375 91.96875 100.023438 91.988281 99.84375 92.082031 C 99.660156 92.171875 99.527344 92.332031 99.464844 92.523438 C 99.402344 92.71875 99.417969 92.925781 99.511719 93.105469 L 101.070312 96.171875 C 101.203125 96.429688 101.464844 96.589844 101.753906 96.589844 " fill-opacity="1" fill-rule="nonzero"/><path fill="#ffde59" d="M 81.835938 74.347656 C 81.980469 74.546875 82.207031 74.664062 82.453125 74.664062 C 82.617188 74.664062 82.769531 74.613281 82.902344 74.519531 C 83.242188 74.269531 83.316406 73.792969 83.070312 73.453125 L 76.265625 64.089844 C 76.019531 63.75 75.539062 63.671875 75.199219 63.917969 C 74.859375 64.167969 74.785156 64.644531 75.03125 64.984375 L 81.835938 74.347656 " fill-opacity="1" fill-rule="nonzero"/><path fill="#ffde59" d="M 71.632812 60.304688 C 71.773438 60.5 72.003906 60.617188 72.25 60.617188 C 72.410156 60.617188 72.566406 60.566406 72.695312 60.472656 C 73.039062 60.226562 73.113281 59.746094 72.867188 59.40625 L 66.0625 50.042969 C 65.8125 49.703125 65.335938 49.628906 64.996094 49.875 C 64.65625 50.121094 64.578125 50.601562 64.828125 50.941406 L 71.632812 60.304688 " fill-opacity="1" fill-rule="nonzero"/><path fill="#ffde59" d="M 85.40625 77.964844 C 85.066406 78.210938 84.992188 78.691406 85.238281 79.03125 L 92.039062 88.394531 C 92.183594 88.59375 92.414062 88.710938 92.65625 88.710938 C 92.820312 88.710938 92.976562 88.660156 93.105469 88.5625 C 93.445312 88.316406 93.519531 87.839844 93.273438 87.496094 L 86.472656 78.132812 C 86.226562 77.792969 85.746094 77.71875 85.40625 77.964844 " fill-opacity="1" fill-rule="nonzero"/><path fill="#ffde59" d="M 92.1875 94.640625 C 92.390625 94.640625 92.582031 94.558594 92.726562 94.414062 C 92.871094 94.269531 92.949219 94.078125 92.949219 93.875 C 92.949219 93.671875 92.871094 93.480469 92.726562 93.335938 L 90.285156 90.898438 C 90 90.609375 89.496094 90.609375 89.207031 90.898438 C 89.0625 91.042969 88.984375 91.234375 88.984375 91.4375 C 88.984375 91.640625 89.0625 91.832031 89.207031 91.976562 L 91.644531 94.414062 C 91.789062 94.558594 91.980469 94.640625 92.1875 94.640625 " fill-opacity="1" fill-rule="nonzero"/><path fill="#ffde59" d="M 67.265625 70.035156 C 67.410156 70.179688 67.601562 70.257812 67.804688 70.257812 C 68.007812 70.257812 68.203125 70.179688 68.34375 70.035156 C 68.488281 69.890625 68.570312 69.699219 68.570312 69.496094 C 68.570312 69.292969 68.488281 69.101562 68.34375 68.957031 L 65.90625 66.519531 C 65.621094 66.230469 65.117188 66.230469 64.828125 66.515625 C 64.683594 66.664062 64.605469 66.855469 64.605469 67.058594 C 64.605469 67.261719 64.683594 67.453125 64.828125 67.597656 L 67.265625 70.035156 " fill-opacity="1" fill-rule="nonzero"/><path fill="#ffde59" d="M 77.019531 79.789062 C 77.160156 79.933594 77.355469 80.011719 77.558594 80.011719 C 77.761719 80.011719 77.953125 79.933594 78.097656 79.789062 C 78.242188 79.644531 78.320312 79.453125 78.320312 79.246094 C 78.320312 79.042969 78.242188 78.851562 78.097656 78.707031 L 75.660156 76.269531 C 75.371094 75.984375 74.867188 75.984375 74.578125 76.269531 C 74.4375 76.414062 74.355469 76.605469 74.355469 76.808594 C 74.355469 77.015625 74.4375 77.207031 74.578125 77.347656 L 77.019531 79.789062 " fill-opacity="1" fill-rule="nonzero"/><path fill="#ffde59" d="M 69.703125 71.394531 C 69.5625 71.539062 69.480469 71.730469 69.480469 71.933594 C 69.480469 72.136719 69.5625 72.328125 69.703125 72.472656 L 72.140625 74.910156 C 72.285156 75.054688 72.476562 75.132812 72.683594 75.132812 C 72.886719 75.132812 73.078125 75.054688 73.222656 74.910156 C 73.363281 74.765625 73.445312 74.578125 73.445312 74.371094 C 73.445312 74.167969 73.363281 73.976562 73.222656 73.832031 L 70.785156 71.394531 C 70.496094 71.105469 69.992188 71.105469 69.703125 71.394531 " fill-opacity="1" fill-rule="nonzero"/><path fill="#ffde59" d="M 82.433594 84.886719 C 82.640625 84.886719 82.828125 84.808594 82.972656 84.664062 C 83.117188 84.519531 83.195312 84.328125 83.195312 84.125 C 83.195312 83.917969 83.117188 83.726562 82.972656 83.585938 L 80.535156 81.144531 C 80.246094 80.859375 79.742188 80.859375 79.457031 81.144531 C 79.3125 81.289062 79.230469 81.480469 79.230469 81.6875 C 79.230469 81.890625 79.3125 82.082031 79.457031 82.222656 L 81.894531 84.664062 C 82.035156 84.808594 82.230469 84.886719 82.433594 84.886719 " fill-opacity="1" fill-rule="nonzero"/><path fill="#ffde59" d="M 84.332031 86.019531 C 84.1875 86.167969 84.109375 86.355469 84.109375 86.5625 C 84.109375 86.765625 84.1875 86.957031 84.332031 87.101562 L 86.769531 89.539062 C 86.914062 89.683594 87.105469 89.761719 87.308594 89.761719 C 87.511719 89.761719 87.707031 89.683594 87.847656 89.539062 C 87.992188 89.394531 88.074219 89.203125 88.074219 89 C 88.074219 88.796875 87.992188 88.605469 87.847656 88.460938 L 85.410156 86.023438 C 85.125 85.734375 84.621094 85.734375 84.332031 86.019531 " fill-opacity="1" fill-rule="nonzero"/><path fill="#ffde59" d="M 97.0625 99.515625 C 97.265625 99.515625 97.457031 99.433594 97.601562 99.292969 C 97.746094 99.148438 97.824219 98.957031 97.824219 98.75 C 97.824219 98.546875 97.746094 98.355469 97.601562 98.210938 L 95.164062 95.773438 C 95.019531 95.628906 94.828125 95.550781 94.625 95.550781 C 94.417969 95.550781 94.226562 95.628906 94.085938 95.773438 C 93.941406 95.917969 93.859375 96.109375 93.859375 96.3125 C 93.859375 96.519531 93.941406 96.707031 94.085938 96.855469 L 96.519531 99.292969 C 96.667969 99.433594 96.855469 99.515625 97.0625 99.515625 " fill-opacity="1" fill-rule="nonzero"/><path fill="#ffde59" d="M 76.277344 87.097656 C 76.03125 87.4375 76.105469 87.914062 76.445312 88.164062 L 85.808594 94.964844 C 85.941406 95.0625 86.09375 95.113281 86.257812 95.113281 C 86.5 95.113281 86.730469 94.992188 86.875 94.796875 C 87.121094 94.457031 87.046875 93.976562 86.707031 93.730469 L 77.34375 86.929688 C 77.003906 86.679688 76.523438 86.757812 76.277344 87.097656 " fill-opacity="1" fill-rule="nonzero"/><path fill="#ffde59" d="M 62.398438 77.957031 L 71.761719 84.761719 C 71.894531 84.855469 72.046875 84.90625 72.210938 84.90625 C 72.457031 84.90625 72.6875 84.789062 72.828125 84.589844 C 73.074219 84.25 73 83.773438 72.660156 83.527344 L 63.296875 76.722656 C 62.957031 76.476562 62.476562 76.550781 62.230469 76.890625 C 61.984375 77.230469 62.058594 77.710938 62.398438 77.957031 " fill-opacity="1" fill-rule="nonzero"/><path fill="#ffde59" d="M 48.355469 67.753906 L 57.71875 74.554688 C 57.847656 74.652344 58.003906 74.699219 58.164062 74.699219 C 58.410156 74.699219 58.640625 74.585938 58.78125 74.386719 C 59.03125 74.046875 58.953125 73.566406 58.613281 73.320312 L 49.25 66.515625 C 48.910156 66.269531 48.433594 66.34375 48.183594 66.6875 C 47.9375 67.027344 48.011719 67.503906 48.355469 67.753906 " fill-opacity="1" fill-rule="nonzero"/><path fill="#ffde59" d="M 93.484375 103.875 C 93.773438 103.875 94.03125 103.710938 94.164062 103.457031 C 94.253906 103.273438 94.273438 103.066406 94.210938 102.875 C 94.144531 102.679688 94.011719 102.523438 93.828125 102.429688 L 90.75 100.859375 C 90.371094 100.667969 89.914062 100.816406 89.722656 101.191406 C 89.628906 101.375 89.613281 101.582031 89.675781 101.777344 C 89.738281 101.96875 89.875 102.128906 90.054688 102.222656 L 93.136719 103.789062 C 93.246094 103.84375 93.363281 103.875 93.484375 103.875 " fill-opacity="1" fill-rule="nonzero"/><path fill="#ffde59" d="M 71.574219 92.804688 L 74.65625 94.371094 C 74.757812 94.425781 74.878906 94.457031 75 94.457031 C 75.289062 94.457031 75.546875 94.296875 75.679688 94.039062 C 75.871094 93.664062 75.722656 93.203125 75.347656 93.011719 L 72.265625 91.441406 C 72.085938 91.347656 71.878906 91.335938 71.683594 91.398438 C 71.492188 91.460938 71.332031 91.597656 71.238281 91.777344 C 71.144531 91.957031 71.132812 92.164062 71.195312 92.359375 C 71.257812 92.554688 71.390625 92.710938 71.574219 92.804688 " fill-opacity="1" fill-rule="nonzero"/><path fill="#ffde59" d="M 56.863281 83.59375 L 53.785156 82.027344 C 53.601562 81.933594 53.394531 81.917969 53.199219 81.980469 C 53.007812 82.042969 52.851562 82.179688 52.757812 82.359375 C 52.566406 82.734375 52.714844 83.195312 53.089844 83.386719 L 56.171875 84.953125 C 56.277344 85.011719 56.398438 85.039062 56.515625 85.039062 C 56.804688 85.039062 57.066406 84.878906 57.195312 84.621094 C 57.289062 84.441406 57.304688 84.234375 57.242188 84.039062 C 57.179688 83.84375 57.046875 83.6875 56.863281 83.59375 " fill-opacity="1" fill-rule="nonzero"/><path fill="#ffde59" d="M 58.917969 85.5 C 58.726562 85.875 58.875 86.335938 59.25 86.523438 L 62.332031 88.09375 C 62.441406 88.148438 62.558594 88.179688 62.679688 88.179688 C 62.96875 88.179688 63.226562 88.015625 63.359375 87.761719 C 63.449219 87.578125 63.46875 87.371094 63.40625 87.179688 C 63.339844 86.984375 63.207031 86.828125 63.023438 86.734375 L 59.945312 85.164062 C 59.570312 84.972656 59.109375 85.121094 58.917969 85.5 " fill-opacity="1" fill-rule="nonzero"/><path fill="#ffde59" d="M 78.429688 94.582031 C 78.246094 94.488281 78.039062 94.472656 77.84375 94.535156 C 77.648438 94.597656 77.492188 94.734375 77.402344 94.914062 C 77.210938 95.289062 77.359375 95.75 77.734375 95.941406 L 80.8125 97.511719 C 80.921875 97.566406 81.042969 97.59375 81.160156 97.59375 C 81.449219 97.59375 81.710938 97.433594 81.839844 97.179688 C 82.03125 96.800781 81.882812 96.34375 81.507812 96.152344 L 78.425781 94.582031 " fill-opacity="1" fill-rule="nonzero"/><path fill="#ffde59" d="M 87.667969 99.289062 L 84.585938 97.722656 C 84.214844 97.53125 83.753906 97.679688 83.5625 98.054688 C 83.371094 98.429688 83.519531 98.890625 83.894531 99.082031 L 86.976562 100.648438 C 87.082031 100.707031 87.203125 100.734375 87.320312 100.734375 C 87.609375 100.734375 87.871094 100.574219 88 100.316406 C 88.191406 99.941406 88.042969 99.480469 87.667969 99.289062 " fill-opacity="1" fill-rule="nonzero"/><path fill="#ffde59" d="M 69.1875 89.871094 L 66.105469 88.304688 C 65.921875 88.210938 65.71875 88.195312 65.523438 88.257812 C 65.328125 88.320312 65.171875 88.457031 65.078125 88.636719 C 64.886719 89.011719 65.035156 89.472656 65.414062 89.664062 L 68.492188 91.234375 C 68.601562 91.289062 68.71875 91.316406 68.839844 91.316406 C 69.128906 91.316406 69.390625 91.15625 69.519531 90.902344 C 69.710938 90.523438 69.5625 90.0625 69.1875 89.871094 " fill-opacity="1" fill-rule="nonzero"/><path fill="#ffde59" d="M 37.882812 88.832031 L 48.890625 92.410156 C 48.964844 92.433594 49.046875 92.449219 49.125 92.449219 C 49.457031 92.449219 49.75 92.234375 49.851562 91.921875 C 49.980469 91.519531 49.761719 91.085938 49.359375 90.957031 L 38.351562 87.382812 C 37.953125 87.253906 37.519531 87.472656 37.390625 87.871094 C 37.261719 88.273438 37.480469 88.703125 37.882812 88.832031 " fill-opacity="1" fill-rule="nonzero"/><path fill="#ffde59" d="M 53.902344 93.238281 C 53.773438 93.636719 53.992188 94.066406 54.390625 94.199219 L 65.402344 97.773438 C 65.476562 97.800781 65.554688 97.8125 65.636719 97.8125 C 65.96875 97.8125 66.257812 97.601562 66.363281 97.285156 C 66.492188 96.882812 66.273438 96.453125 65.875 96.324219 L 54.863281 92.746094 C 54.464844 92.617188 54.035156 92.835938 53.902344 93.238281 " fill-opacity="1" fill-rule="nonzero"/><path fill="#ffde59" d="M 70.414062 98.601562 C 70.285156 99 70.503906 99.433594 70.902344 99.5625 L 81.914062 103.140625 C 81.988281 103.164062 82.066406 103.179688 82.148438 103.179688 C 82.480469 103.179688 82.769531 102.964844 82.875 102.652344 C 83.003906 102.25 82.785156 101.816406 82.382812 101.6875 L 71.375 98.109375 C 70.972656 97.984375 70.542969 98.199219 70.414062 98.601562 " fill-opacity="1" fill-rule="nonzero"/><path fill="#ffde59" d="M 87.003906 107.765625 C 86.9375 108.183594 87.222656 108.574219 87.640625 108.636719 L 91.050781 109.179688 C 91.09375 109.1875 91.132812 109.1875 91.171875 109.1875 C 91.550781 109.1875 91.863281 108.917969 91.925781 108.542969 C 91.988281 108.128906 91.707031 107.738281 91.289062 107.671875 L 87.878906 107.132812 C 87.464844 107.066406 87.070312 107.351562 87.003906 107.765625 " fill-opacity="1" fill-rule="nonzero"/><path fill="#ffde59" d="M 80.484375 106.183594 C 80.320312 106.304688 80.210938 106.484375 80.179688 106.6875 C 80.113281 107.101562 80.398438 107.492188 80.8125 107.558594 L 84.226562 108.097656 C 84.265625 108.105469 84.304688 108.109375 84.34375 108.109375 C 84.722656 108.109375 85.039062 107.835938 85.097656 107.464844 C 85.164062 107.046875 84.878906 106.65625 84.464844 106.589844 L 81.050781 106.050781 C 80.851562 106.015625 80.648438 106.066406 80.484375 106.183594 " fill-opacity="1" fill-rule="nonzero"/><path fill="#ffde59" d="M 66.527344 104.523438 C 66.460938 104.9375 66.746094 105.328125 67.160156 105.394531 L 70.574219 105.9375 C 70.617188 105.941406 70.65625 105.945312 70.695312 105.945312 C 71.070312 105.945312 71.390625 105.675781 71.445312 105.300781 C 71.480469 105.101562 71.429688 104.898438 71.3125 104.734375 C 71.191406 104.570312 71.015625 104.460938 70.8125 104.429688 L 67.398438 103.886719 C 66.988281 103.824219 66.59375 104.105469 66.527344 104.523438 " fill-opacity="1" fill-rule="nonzero"/><path fill="#ffde59" d="M 50.96875 102.058594 C 51.035156 101.644531 50.75 101.253906 50.335938 101.183594 L 46.921875 100.644531 C 46.722656 100.613281 46.519531 100.660156 46.355469 100.78125 C 46.191406 100.902344 46.082031 101.078125 46.050781 101.277344 C 45.984375 101.695312 46.269531 102.085938 46.683594 102.152344 L 50.097656 102.691406 C 50.136719 102.699219 50.179688 102.703125 50.21875 102.703125 C 50.59375 102.703125 50.910156 102.429688 50.96875 102.058594 " fill-opacity="1" fill-rule="nonzero"/><g clip-path="url(#3a103cf890)"><path fill="#ffde59" d="M 132.125 115.675781 C 132.503906 115.675781 132.820312 115.402344 132.878906 115.03125 C 132.945312 114.613281 132.660156 114.222656 132.242188 114.15625 L 128.832031 113.617188 C 128.414062 113.554688 128.023438 113.835938 127.957031 114.25 C 127.890625 114.667969 128.175781 115.058594 128.59375 115.125 L 132.007812 115.664062 C 132.046875 115.671875 132.085938 115.675781 132.125 115.675781 " fill-opacity="1" fill-rule="nonzero"/></g><path fill="#ffde59" d="M 60.574219 102.808594 C 60.160156 102.742188 59.765625 103.027344 59.699219 103.441406 C 59.667969 103.640625 59.71875 103.84375 59.835938 104.007812 C 59.957031 104.175781 60.132812 104.28125 60.335938 104.316406 L 63.75 104.855469 C 63.789062 104.859375 63.828125 104.863281 63.867188 104.863281 C 64.246094 104.863281 64.5625 104.59375 64.621094 104.222656 C 64.6875 103.804688 64.402344 103.414062 63.988281 103.347656 L 60.574219 102.808594 " fill-opacity="1" fill-rule="nonzero"/><path fill="#ffde59" d="M 53.75 101.726562 C 53.546875 101.695312 53.34375 101.742188 53.179688 101.863281 C 53.015625 101.980469 52.90625 102.15625 52.875 102.359375 C 52.808594 102.777344 53.09375 103.167969 53.511719 103.234375 L 56.925781 103.773438 C 56.964844 103.78125 57.003906 103.785156 57.042969 103.785156 C 57.421875 103.785156 57.734375 103.511719 57.796875 103.140625 C 57.863281 102.726562 57.578125 102.332031 57.164062 102.265625 L 53.75 101.726562 " fill-opacity="1" fill-rule="nonzero"/><path fill="#ffde59" d="M 77.398438 107.015625 C 77.441406 107.023438 77.480469 107.027344 77.519531 107.027344 C 77.898438 107.027344 78.214844 106.757812 78.273438 106.382812 C 78.339844 105.96875 78.054688 105.574219 77.636719 105.507812 L 74.226562 104.96875 C 74.023438 104.9375 73.820312 104.984375 73.65625 105.105469 C 73.492188 105.226562 73.382812 105.402344 73.351562 105.605469 C 73.285156 106.019531 73.570312 106.410156 73.988281 106.476562 L 77.398438 107.015625 " fill-opacity="1" fill-rule="nonzero"/><g clip-path="url(#04be83bd96)"><path fill="#ffde59" d="M 184.902344 110.59375 L 173.328125 110.59375 C 172.90625 110.59375 172.5625 110.933594 172.5625 111.355469 C 172.5625 111.777344 172.90625 112.117188 173.328125 112.117188 L 184.902344 112.117188 C 185.320312 112.117188 185.664062 111.777344 185.664062 111.355469 C 185.664062 110.933594 185.320312 110.59375 184.902344 110.59375 " fill-opacity="1" fill-rule="nonzero"/></g><path fill="#ffde59" d="M 81.496094 111.355469 C 81.496094 110.933594 81.152344 110.59375 80.730469 110.59375 L 69.15625 110.59375 C 68.738281 110.59375 68.394531 110.933594 68.394531 111.355469 C 68.394531 111.777344 68.738281 112.117188 69.15625 112.117188 L 80.730469 112.117188 C 81.152344 112.117188 81.496094 111.777344 81.496094 111.355469 " fill-opacity="1" fill-rule="nonzero"/><g clip-path="url(#1f8eb392a0)"><path fill="#ffde59" d="M 46.773438 111.355469 C 46.773438 110.933594 46.429688 110.59375 46.007812 110.59375 L 34.4375 110.59375 C 34.015625 110.59375 33.671875 110.933594 33.671875 111.355469 C 33.671875 111.777344 34.015625 112.117188 34.4375 112.117188 L 46.007812 112.117188 C 46.429688 112.117188 46.773438 111.777344 46.773438 111.355469 " fill-opacity="1" fill-rule="nonzero"/></g><path fill="#ffde59" d="M 150.941406 111.355469 C 150.941406 110.933594 150.597656 110.59375 150.179688 110.59375 L 138.605469 110.59375 C 138.183594 110.59375 137.839844 110.933594 137.839844 111.355469 C 137.839844 111.777344 138.183594 112.117188 138.605469 112.117188 L 150.179688 112.117188 C 150.597656 112.117188 150.941406 111.777344 150.941406 111.355469 " fill-opacity="1" fill-rule="nonzero"/><path fill="#ffde59" d="M 51.035156 111.355469 C 51.035156 111.777344 51.375 112.117188 51.796875 112.117188 L 63.371094 112.117188 C 63.789062 112.117188 64.132812 111.777344 64.132812 111.355469 C 64.132812 110.933594 63.789062 110.59375 63.371094 110.59375 L 51.796875 110.59375 C 51.375 110.59375 51.035156 110.933594 51.035156 111.355469 " fill-opacity="1" fill-rule="nonzero"/><path fill="#ffde59" d="M 167.539062 110.59375 L 155.964844 110.59375 C 155.542969 110.59375 155.203125 110.933594 155.203125 111.355469 C 155.203125 111.777344 155.542969 112.117188 155.964844 112.117188 L 167.539062 112.117188 C 167.960938 112.117188 168.300781 111.777344 168.300781 111.355469 C 168.300781 110.933594 167.960938 110.59375 167.539062 110.59375 " fill-opacity="1" fill-rule="nonzero"/><path fill="#ffde59" d="M 127.378906 108.550781 C 127.4375 108.921875 127.753906 109.195312 128.132812 109.195312 C 128.171875 109.195312 128.210938 109.191406 128.253906 109.183594 L 131.664062 108.644531 C 132.078125 108.578125 132.363281 108.1875 132.296875 107.769531 C 132.265625 107.570312 132.15625 107.394531 131.992188 107.273438 C 131.824219 107.152344 131.625 107.105469 131.421875 107.136719 L 128.011719 107.675781 C 127.597656 107.742188 127.3125 108.132812 127.378906 108.550781 " fill-opacity="1" fill-rule="nonzero"/><path fill="#ffde59" d="M 134.199219 107.46875 C 134.257812 107.84375 134.574219 108.113281 134.949219 108.113281 C 134.992188 108.113281 135.03125 108.109375 135.070312 108.101562 L 138.480469 107.566406 C 138.894531 107.496094 139.179688 107.105469 139.117188 106.691406 C 139.050781 106.273438 138.65625 105.992188 138.242188 106.058594 L 134.832031 106.597656 C 134.417969 106.664062 134.132812 107.054688 134.199219 107.46875 " fill-opacity="1" fill-rule="nonzero"/><path fill="#ffde59" d="M 165.523438 101.734375 L 162.113281 102.277344 C 161.695312 102.34375 161.410156 102.734375 161.476562 103.148438 C 161.535156 103.523438 161.851562 103.792969 162.230469 103.792969 C 162.269531 103.792969 162.308594 103.789062 162.351562 103.785156 L 165.757812 103.242188 C 166.175781 103.179688 166.460938 102.785156 166.394531 102.371094 C 166.328125 101.957031 165.9375 101.671875 165.523438 101.734375 " fill-opacity="1" fill-rule="nonzero"/><g clip-path="url(#93b31cf58c)"><path fill="#ffde59" d="M 87.335938 115.664062 L 90.742188 115.125 C 91.160156 115.058594 91.445312 114.667969 91.378906 114.25 C 91.347656 114.050781 91.238281 113.875 91.070312 113.753906 C 90.90625 113.632812 90.707031 113.585938 90.503906 113.617188 L 87.097656 114.15625 C 86.679688 114.222656 86.394531 114.613281 86.460938 115.03125 C 86.519531 115.402344 86.839844 115.675781 87.214844 115.675781 C 87.253906 115.675781 87.292969 115.671875 87.335938 115.664062 " fill-opacity="1" fill-rule="nonzero"/></g><path fill="#ffde59" d="M 141.769531 107.035156 C 141.808594 107.035156 141.851562 107.03125 141.890625 107.023438 L 145.300781 106.484375 C 145.71875 106.417969 146 106.027344 145.9375 105.609375 C 145.902344 105.410156 145.796875 105.230469 145.628906 105.113281 C 145.464844 104.992188 145.261719 104.941406 145.0625 104.976562 L 141.652344 105.515625 C 141.238281 105.582031 140.953125 105.972656 141.019531 106.390625 C 141.078125 106.761719 141.394531 107.035156 141.769531 107.035156 " fill-opacity="1" fill-rule="nonzero"/><path fill="#ffde59" d="M 147.835938 105.308594 C 147.898438 105.683594 148.214844 105.953125 148.589844 105.953125 C 148.628906 105.953125 148.667969 105.949219 148.710938 105.945312 L 152.121094 105.402344 C 152.535156 105.339844 152.820312 104.945312 152.753906 104.53125 C 152.6875 104.117188 152.296875 103.832031 151.882812 103.894531 L 148.472656 104.4375 C 148.054688 104.503906 147.773438 104.894531 147.835938 105.308594 " fill-opacity="1" fill-rule="nonzero"/><path fill="#ffde59" d="M 173.214844 101.289062 C 173.148438 100.875 172.753906 100.589844 172.339844 100.65625 L 168.929688 101.195312 C 168.515625 101.261719 168.230469 101.652344 168.296875 102.070312 C 168.355469 102.441406 168.671875 102.714844 169.050781 102.714844 C 169.089844 102.714844 169.128906 102.710938 169.167969 102.703125 L 172.578125 102.164062 C 172.996094 102.097656 173.277344 101.707031 173.214844 101.289062 " fill-opacity="1" fill-rule="nonzero"/><path fill="#ffde59" d="M 158.703125 102.816406 L 155.289062 103.355469 C 155.089844 103.386719 154.914062 103.496094 154.792969 103.660156 C 154.671875 103.828125 154.625 104.027344 154.65625 104.230469 C 154.714844 104.601562 155.03125 104.875 155.410156 104.875 C 155.449219 104.875 155.488281 104.871094 155.53125 104.863281 L 158.941406 104.324219 C 159.140625 104.292969 159.316406 104.183594 159.4375 104.019531 C 159.558594 103.855469 159.605469 103.652344 159.574219 103.449219 C 159.507812 103.035156 159.113281 102.75 158.703125 102.816406 " fill-opacity="1" fill-rule="nonzero"/><path fill="#ffde59" d="M 152.972656 97.285156 C 153.078125 97.597656 153.367188 97.8125 153.699219 97.8125 C 153.78125 97.8125 153.859375 97.796875 153.9375 97.773438 L 164.941406 94.195312 C 165.34375 94.066406 165.5625 93.636719 165.433594 93.234375 C 165.300781 92.832031 164.871094 92.617188 164.472656 92.746094 L 153.464844 96.320312 C 153.0625 96.453125 152.84375 96.882812 152.972656 97.285156 " fill-opacity="1" fill-rule="nonzero"/><path fill="#ffde59" d="M 136.460938 102.648438 C 136.566406 102.964844 136.859375 103.175781 137.1875 103.175781 C 137.269531 103.175781 137.347656 103.164062 137.425781 103.136719 L 148.433594 99.5625 C 148.625 99.5 148.785156 99.363281 148.875 99.183594 C 148.96875 99 148.984375 98.796875 148.921875 98.601562 C 148.792969 98.199219 148.359375 97.984375 147.960938 98.109375 L 136.953125 101.6875 C 136.550781 101.816406 136.332031 102.246094 136.460938 102.648438 " fill-opacity="1" fill-rule="nonzero"/><path fill="#ffde59" d="M 169.53125 91.335938 C 169.4375 91.519531 169.421875 91.726562 169.488281 91.917969 C 169.585938 92.234375 169.878906 92.445312 170.210938 92.445312 C 170.289062 92.445312 170.371094 92.433594 170.449219 92.40625 L 181.453125 88.832031 C 181.648438 88.769531 181.808594 88.632812 181.898438 88.453125 C 181.992188 88.273438 182.007812 88.066406 181.945312 87.871094 C 181.816406 87.472656 181.382812 87.25 180.984375 87.382812 L 169.976562 90.957031 C 169.78125 91.019531 169.625 91.15625 169.53125 91.335938 " fill-opacity="1" fill-rule="nonzero"/><path fill="#ffde59" d="M 144.238281 94.5 C 144.359375 94.5 144.480469 94.472656 144.585938 94.417969 L 147.648438 92.859375 C 148.023438 92.667969 148.175781 92.207031 147.984375 91.832031 C 147.792969 91.457031 147.332031 91.308594 146.957031 91.5 L 143.894531 93.058594 C 143.519531 93.25 143.367188 93.710938 143.5625 94.085938 C 143.691406 94.339844 143.953125 94.5 144.238281 94.5 " fill-opacity="1" fill-rule="nonzero"/><path fill="#ffde59" d="M 138.117188 97.625 C 138.234375 97.625 138.355469 97.59375 138.460938 97.539062 L 141.523438 95.980469 C 141.898438 95.789062 142.046875 95.328125 141.859375 94.953125 C 141.667969 94.578125 141.207031 94.425781 140.832031 94.617188 L 137.769531 96.179688 C 137.394531 96.371094 137.242188 96.832031 137.433594 97.207031 C 137.566406 97.464844 137.824219 97.625 138.117188 97.625 " fill-opacity="1" fill-rule="nonzero"/><path fill="#ffde59" d="M 125.183594 103.449219 C 125.316406 103.707031 125.574219 103.867188 125.867188 103.867188 C 125.984375 103.867188 126.105469 103.835938 126.210938 103.78125 L 129.273438 102.222656 C 129.648438 102.03125 129.796875 101.570312 129.605469 101.195312 C 129.515625 101.011719 129.355469 100.878906 129.164062 100.816406 C 128.96875 100.753906 128.761719 100.769531 128.582031 100.863281 L 125.519531 102.421875 C 125.144531 102.613281 124.992188 103.074219 125.183594 103.449219 " fill-opacity="1" fill-rule="nonzero"/><path fill="#ffde59" d="M 154.109375 88.710938 C 153.917969 88.335938 153.457031 88.183594 153.082031 88.375 L 150.019531 89.9375 C 149.644531 90.128906 149.492188 90.589844 149.683594 90.964844 C 149.816406 91.222656 150.078125 91.378906 150.367188 91.378906 C 150.484375 91.378906 150.605469 91.351562 150.714844 91.296875 L 153.777344 89.738281 C 154.148438 89.546875 154.300781 89.085938 154.109375 88.710938 " fill-opacity="1" fill-rule="nonzero"/><path fill="#ffde59" d="M 166.359375 82.46875 C 166.265625 82.289062 166.109375 82.152344 165.914062 82.089844 C 165.722656 82.027344 165.515625 82.042969 165.332031 82.132812 L 162.269531 83.695312 C 161.894531 83.886719 161.746094 84.347656 161.9375 84.722656 C 162.066406 84.980469 162.328125 85.136719 162.617188 85.136719 C 162.738281 85.136719 162.855469 85.109375 162.964844 85.054688 L 166.027344 83.496094 C 166.207031 83.402344 166.339844 83.246094 166.40625 83.050781 C 166.46875 82.855469 166.453125 82.652344 166.359375 82.46875 " fill-opacity="1" fill-rule="nonzero"/><path fill="#ffde59" d="M 134.707031 97.742188 L 131.644531 99.300781 C 131.269531 99.492188 131.121094 99.953125 131.3125 100.328125 C 131.441406 100.585938 131.703125 100.742188 131.988281 100.742188 C 132.113281 100.742188 132.226562 100.714844 132.335938 100.660156 L 135.398438 99.101562 C 135.773438 98.910156 135.921875 98.449219 135.730469 98.074219 C 135.542969 97.699219 135.082031 97.550781 134.707031 97.742188 " fill-opacity="1" fill-rule="nonzero"/><path fill="#ffde59" d="M 155.808594 87.84375 C 155.941406 88.097656 156.203125 88.261719 156.492188 88.261719 C 156.613281 88.261719 156.730469 88.230469 156.839844 88.175781 L 159.902344 86.613281 C 160.277344 86.425781 160.425781 85.964844 160.234375 85.589844 C 160.042969 85.214844 159.582031 85.066406 159.207031 85.257812 L 156.144531 86.816406 C 155.769531 87.007812 155.621094 87.46875 155.808594 87.84375 " fill-opacity="1" fill-rule="nonzero"/><path fill="#ffde59" d="M 146.507812 84.589844 C 146.648438 84.785156 146.878906 84.90625 147.125 84.90625 C 147.285156 84.90625 147.441406 84.851562 147.570312 84.757812 L 156.9375 77.957031 C 157.277344 77.707031 157.351562 77.226562 157.105469 76.886719 C 156.859375 76.546875 156.378906 76.472656 156.039062 76.71875 L 146.675781 83.523438 C 146.335938 83.769531 146.257812 84.25 146.507812 84.589844 " fill-opacity="1" fill-rule="nonzero"/><path fill="#ffde59" d="M 160.550781 74.386719 C 160.695312 74.582031 160.925781 74.699219 161.167969 74.699219 C 161.332031 74.699219 161.488281 74.648438 161.617188 74.554688 L 170.984375 67.75 C 171.324219 67.503906 171.398438 67.023438 171.152344 66.683594 C 170.902344 66.34375 170.425781 66.269531 170.085938 66.515625 L 160.71875 73.320312 C 160.378906 73.566406 160.304688 74.042969 160.550781 74.386719 " fill-opacity="1" fill-rule="nonzero"/><path fill="#ffde59" d="M 132.460938 94.792969 C 132.605469 94.992188 132.835938 95.109375 133.078125 95.109375 C 133.242188 95.109375 133.394531 95.058594 133.527344 94.960938 L 142.890625 88.160156 C 143.230469 87.914062 143.304688 87.433594 143.058594 87.09375 C 142.8125 86.753906 142.332031 86.679688 141.992188 86.925781 L 132.628906 93.726562 C 132.289062 93.972656 132.214844 94.453125 132.460938 94.792969 " fill-opacity="1" fill-rule="nonzero"/><path fill="#ffde59" d="M 133.847656 86.09375 L 131.402344 88.539062 C 131.257812 88.683594 131.179688 88.875 131.179688 89.078125 C 131.179688 89.285156 131.257812 89.476562 131.402344 89.617188 C 131.546875 89.761719 131.738281 89.84375 131.941406 89.84375 C 132.144531 89.84375 132.335938 89.761719 132.480469 89.617188 L 134.925781 87.175781 C 135.070312 87.03125 135.152344 86.839844 135.152344 86.632812 C 135.152344 86.429688 135.070312 86.238281 134.925781 86.09375 C 134.640625 85.808594 134.136719 85.808594 133.847656 86.09375 " fill-opacity="1" fill-rule="nonzero"/><path fill="#ffde59" d="M 137.375 84.726562 L 139.820312 82.28125 C 140.113281 81.984375 140.113281 81.5 139.820312 81.203125 C 139.53125 80.914062 139.027344 80.914062 138.738281 81.203125 L 136.292969 83.648438 C 136.152344 83.792969 136.070312 83.984375 136.070312 84.1875 C 136.070312 84.394531 136.152344 84.585938 136.292969 84.726562 C 136.4375 84.871094 136.628906 84.953125 136.835938 84.953125 C 137.035156 84.953125 137.230469 84.871094 137.375 84.726562 " fill-opacity="1" fill-rule="nonzero"/><path fill="#ffde59" d="M 128.957031 90.984375 L 126.511719 93.433594 C 126.367188 93.574219 126.289062 93.765625 126.289062 93.972656 C 126.289062 94.175781 126.367188 94.367188 126.511719 94.507812 C 126.65625 94.65625 126.847656 94.734375 127.050781 94.734375 C 127.253906 94.734375 127.445312 94.65625 127.589844 94.507812 L 130.035156 92.0625 C 130.179688 91.921875 130.261719 91.730469 130.261719 91.523438 C 130.261719 91.320312 130.179688 91.128906 130.035156 90.984375 C 129.75 90.699219 129.246094 90.699219 128.957031 90.984375 " fill-opacity="1" fill-rule="nonzero"/><path fill="#ffde59" d="M 153.414062 66.527344 L 150.96875 68.976562 C 150.820312 69.121094 150.742188 69.3125 150.742188 69.515625 C 150.742188 69.71875 150.820312 69.910156 150.96875 70.054688 C 151.113281 70.199219 151.304688 70.28125 151.507812 70.28125 C 151.710938 70.28125 151.902344 70.199219 152.046875 70.054688 L 154.492188 67.609375 C 154.636719 67.464844 154.714844 67.273438 154.714844 67.070312 C 154.714844 66.863281 154.636719 66.675781 154.492188 66.527344 C 154.203125 66.242188 153.703125 66.242188 153.414062 66.527344 " fill-opacity="1" fill-rule="nonzero"/><path fill="#ffde59" d="M 146.613281 75.167969 C 146.820312 75.167969 147.011719 75.089844 147.15625 74.945312 L 149.601562 72.5 C 149.746094 72.355469 149.824219 72.164062 149.824219 71.960938 C 149.824219 71.757812 149.746094 71.566406 149.601562 71.421875 C 149.3125 71.132812 148.808594 71.132812 148.523438 71.421875 L 146.074219 73.867188 C 145.933594 74.011719 145.851562 74.203125 145.851562 74.40625 C 145.851562 74.609375 145.933594 74.800781 146.074219 74.945312 C 146.21875 75.089844 146.414062 75.167969 146.613281 75.167969 " fill-opacity="1" fill-rule="nonzero"/><path fill="#ffde59" d="M 143.628906 76.3125 L 141.183594 78.757812 C 141.039062 78.902344 140.960938 79.09375 140.960938 79.296875 C 140.960938 79.5 141.039062 79.691406 141.183594 79.835938 C 141.328125 79.980469 141.519531 80.058594 141.722656 80.058594 C 141.929688 80.058594 142.121094 79.980469 142.265625 79.835938 L 144.710938 77.390625 C 144.851562 77.246094 144.933594 77.054688 144.933594 76.851562 C 144.933594 76.648438 144.851562 76.457031 144.710938 76.3125 C 144.421875 76.023438 143.917969 76.023438 143.628906 76.3125 " fill-opacity="1" fill-rule="nonzero"/><path fill="#ffde59" d="M 124.066406 95.878906 L 121.621094 98.324219 C 121.324219 98.621094 121.324219 99.105469 121.621094 99.402344 C 121.765625 99.546875 121.953125 99.625 122.160156 99.625 C 122.363281 99.625 122.554688 99.546875 122.699219 99.402344 L 125.144531 96.957031 C 125.441406 96.660156 125.441406 96.171875 125.144531 95.878906 C 124.855469 95.585938 124.351562 95.585938 124.066406 95.878906 " fill-opacity="1" fill-rule="nonzero"/><path fill="#ffde59" d="M 136.433594 74.515625 C 136.566406 74.609375 136.71875 74.660156 136.878906 74.660156 C 137.125 74.660156 137.355469 74.542969 137.5 74.34375 L 144.304688 64.984375 C 144.550781 64.640625 144.472656 64.164062 144.132812 63.914062 C 143.792969 63.671875 143.316406 63.746094 143.066406 64.085938 L 136.261719 73.449219 C 136.015625 73.789062 136.09375 74.265625 136.433594 74.515625 " fill-opacity="1" fill-rule="nonzero"/><path fill="#ffde59" d="M 126.230469 88.558594 C 126.359375 88.65625 126.515625 88.707031 126.675781 88.707031 C 126.921875 88.707031 127.152344 88.589844 127.292969 88.390625 L 134.097656 79.027344 C 134.34375 78.6875 134.269531 78.207031 133.929688 77.960938 C 133.589844 77.714844 133.109375 77.792969 132.863281 78.128906 L 126.058594 87.496094 C 125.8125 87.835938 125.890625 88.3125 126.230469 88.558594 " fill-opacity="1" fill-rule="nonzero"/><path fill="#ffde59" d="M 146.636719 60.46875 C 146.769531 60.5625 146.925781 60.617188 147.085938 60.617188 C 147.328125 60.617188 147.5625 60.496094 147.703125 60.300781 L 154.507812 50.9375 C 154.753906 50.597656 154.679688 50.117188 154.335938 49.871094 C 153.996094 49.625 153.519531 49.699219 153.269531 50.039062 L 146.46875 59.402344 C 146.222656 59.746094 146.296875 60.222656 146.636719 60.46875 " fill-opacity="1" fill-rule="nonzero"/><path fill="#ffde59" d="M 130.089844 72.035156 C 130.378906 72.035156 130.640625 71.875 130.769531 71.617188 L 132.335938 68.546875 C 132.527344 68.171875 132.378906 67.710938 132.003906 67.519531 C 131.628906 67.328125 131.167969 67.480469 130.976562 67.851562 L 129.410156 70.921875 C 129.222656 71.300781 129.371094 71.761719 129.746094 71.953125 C 129.851562 72.003906 129.972656 72.035156 130.089844 72.035156 " fill-opacity="1" fill-rule="nonzero"/><path fill="#ffde59" d="M 122.617188 85.941406 C 122.238281 85.753906 121.777344 85.902344 121.589844 86.277344 L 120.023438 89.347656 C 119.832031 89.722656 119.984375 90.183594 120.359375 90.375 C 120.464844 90.429688 120.585938 90.457031 120.703125 90.457031 C 120.992188 90.457031 121.253906 90.296875 121.386719 90.039062 L 122.949219 86.96875 C 123.140625 86.59375 122.992188 86.132812 122.617188 85.941406 " fill-opacity="1" fill-rule="nonzero"/><path fill="#ffde59" d="M 123.488281 84.234375 C 123.59375 84.289062 123.714844 84.316406 123.832031 84.316406 C 124.121094 84.316406 124.382812 84.15625 124.511719 83.898438 L 126.078125 80.828125 C 126.269531 80.453125 126.121094 79.992188 125.742188 79.800781 C 125.367188 79.609375 124.910156 79.761719 124.71875 80.136719 L 123.152344 83.207031 C 122.960938 83.582031 123.109375 84.042969 123.488281 84.234375 " fill-opacity="1" fill-rule="nonzero"/><path fill="#ffde59" d="M 126.960938 78.175781 C 127.25 78.175781 127.511719 78.015625 127.644531 77.757812 L 129.207031 74.6875 C 129.398438 74.3125 129.246094 73.851562 128.875 73.660156 C 128.691406 73.566406 128.484375 73.550781 128.289062 73.617188 C 128.097656 73.679688 127.9375 73.8125 127.847656 73.996094 L 126.28125 77.066406 C 126.089844 77.441406 126.242188 77.902344 126.613281 78.09375 C 126.726562 78.148438 126.839844 78.175781 126.960938 78.175781 " fill-opacity="1" fill-rule="nonzero"/><path fill="#ffde59" d="M 119.820312 93.109375 C 119.914062 92.929688 119.925781 92.722656 119.867188 92.527344 C 119.800781 92.335938 119.667969 92.175781 119.488281 92.085938 C 119.113281 91.894531 118.652344 92.042969 118.460938 92.417969 L 116.894531 95.488281 C 116.703125 95.863281 116.855469 96.324219 117.230469 96.515625 C 117.335938 96.570312 117.457031 96.597656 117.574219 96.597656 C 117.863281 96.597656 118.125 96.4375 118.257812 96.179688 L 119.820312 93.109375 " fill-opacity="1" fill-rule="nonzero"/><path fill="#ffde59" d="M 132.875 65.8125 C 132.980469 65.863281 133.101562 65.894531 133.21875 65.894531 C 133.507812 65.894531 133.769531 65.734375 133.898438 65.476562 L 135.464844 62.40625 C 135.65625 62.03125 135.507812 61.570312 135.132812 61.378906 C 134.753906 61.1875 134.296875 61.339844 134.105469 61.710938 L 132.539062 64.78125 C 132.347656 65.160156 132.5 65.621094 132.875 65.8125 " fill-opacity="1" fill-rule="nonzero"/><path fill="#ffde59" d="M 136.003906 59.667969 C 136.109375 59.722656 136.230469 59.753906 136.347656 59.753906 C 136.636719 59.753906 136.898438 59.59375 137.03125 59.335938 L 138.59375 56.265625 C 138.6875 56.082031 138.703125 55.875 138.640625 55.683594 C 138.578125 55.488281 138.441406 55.332031 138.261719 55.238281 C 138.078125 55.144531 137.871094 55.128906 137.675781 55.191406 C 137.484375 55.257812 137.324219 55.390625 137.234375 55.570312 L 135.667969 58.640625 C 135.476562 59.015625 135.628906 59.476562 136.003906 59.667969 " fill-opacity="1" fill-rule="nonzero"/><path fill="#ffde59" d="M 123.738281 68.046875 C 123.816406 68.070312 123.894531 68.085938 123.972656 68.085938 C 124.308594 68.085938 124.597656 67.871094 124.699219 67.558594 L 128.277344 56.550781 C 128.339844 56.355469 128.324219 56.148438 128.230469 55.96875 C 128.140625 55.785156 127.980469 55.648438 127.789062 55.585938 C 127.59375 55.523438 127.386719 55.539062 127.207031 55.632812 C 127.023438 55.722656 126.886719 55.882812 126.824219 56.078125 L 123.25 67.085938 C 123.1875 67.28125 123.203125 67.484375 123.296875 67.667969 C 123.386719 67.847656 123.542969 67.984375 123.738281 68.046875 " fill-opacity="1" fill-rule="nonzero"/><path fill="#ffde59" d="M 118.375 84.558594 C 118.449219 84.585938 118.53125 84.59375 118.609375 84.59375 C 118.941406 84.59375 119.230469 84.382812 119.335938 84.066406 L 122.910156 73.0625 C 123.042969 72.660156 122.820312 72.230469 122.421875 72.097656 C 122.023438 71.96875 121.589844 72.191406 121.460938 72.589844 L 117.886719 83.597656 C 117.753906 83.996094 117.972656 84.425781 118.375 84.558594 " fill-opacity="1" fill-rule="nonzero"/><path fill="#ffde59" d="M 129.105469 51.535156 C 129.179688 51.558594 129.261719 51.574219 129.339844 51.574219 C 129.671875 51.574219 129.960938 51.359375 130.066406 51.046875 L 133.640625 40.039062 C 133.773438 39.636719 133.550781 39.207031 133.152344 39.074219 C 132.75 38.945312 132.320312 39.167969 132.191406 39.566406 L 128.613281 50.574219 C 128.550781 50.765625 128.566406 50.972656 128.660156 51.15625 C 128.753906 51.335938 128.910156 51.472656 129.105469 51.535156 " fill-opacity="1" fill-rule="nonzero"/><path fill="#ffde59" d="M 113.386719 88.054688 C 113.425781 88.0625 113.464844 88.066406 113.507812 88.066406 C 113.882812 88.066406 114.199219 87.792969 114.257812 87.421875 L 114.804688 84.011719 C 114.871094 83.59375 114.585938 83.203125 114.167969 83.136719 C 113.757812 83.070312 113.363281 83.355469 113.296875 83.769531 L 112.753906 87.179688 C 112.6875 87.597656 112.972656 87.988281 113.386719 88.054688 " fill-opacity="1" fill-rule="nonzero"/><path fill="#ffde59" d="M 112.417969 94.886719 C 112.796875 94.886719 113.113281 94.613281 113.171875 94.242188 L 113.714844 90.832031 C 113.785156 90.417969 113.5 90.027344 113.082031 89.957031 C 112.882812 89.925781 112.679688 89.972656 112.515625 90.09375 C 112.351562 90.210938 112.242188 90.390625 112.207031 90.59375 L 111.664062 94.003906 C 111.597656 94.417969 111.882812 94.808594 112.296875 94.875 C 112.339844 94.882812 112.378906 94.886719 112.417969 94.886719 " fill-opacity="1" fill-rule="nonzero"/><path fill="#ffde59" d="M 115.5625 74.410156 C 115.601562 74.417969 115.644531 74.421875 115.683594 74.421875 C 116.058594 74.421875 116.378906 74.152344 116.433594 73.777344 L 116.980469 70.367188 C 117.011719 70.167969 116.964844 69.964844 116.84375 69.800781 C 116.726562 69.632812 116.546875 69.523438 116.34375 69.496094 C 115.933594 69.429688 115.539062 69.710938 115.472656 70.125 L 114.929688 73.535156 C 114.898438 73.738281 114.945312 73.941406 115.066406 74.105469 C 115.183594 74.269531 115.359375 74.378906 115.5625 74.410156 " fill-opacity="1" fill-rule="nonzero"/><path fill="#ffde59" d="M 114.476562 81.234375 C 114.515625 81.242188 114.554688 81.242188 114.59375 81.242188 C 114.972656 81.242188 115.289062 80.972656 115.347656 80.601562 L 115.890625 77.1875 C 115.957031 76.773438 115.675781 76.382812 115.257812 76.316406 C 115.058594 76.285156 114.855469 76.332031 114.691406 76.449219 C 114.523438 76.570312 114.414062 76.746094 114.386719 76.949219 L 113.839844 80.359375 C 113.808594 80.558594 113.859375 80.761719 113.976562 80.925781 C 114.097656 81.09375 114.273438 81.199219 114.476562 81.234375 " fill-opacity="1" fill-rule="nonzero"/><path fill="#ffde59" d="M 118.828125 53.949219 C 118.867188 53.953125 118.90625 53.957031 118.949219 53.957031 C 119.324219 53.957031 119.640625 53.6875 119.699219 53.3125 L 120.246094 49.902344 C 120.308594 49.488281 120.027344 49.097656 119.609375 49.03125 C 119.195312 48.964844 118.800781 49.246094 118.738281 49.664062 L 118.191406 53.074219 C 118.125 53.488281 118.410156 53.882812 118.828125 53.949219 " fill-opacity="1" fill-rule="nonzero"/><path fill="#ffde59" d="M 117.738281 60.769531 C 117.777344 60.773438 117.820312 60.777344 117.859375 60.777344 C 118.238281 60.777344 118.554688 60.507812 118.609375 60.136719 L 119.15625 56.722656 C 119.222656 56.308594 118.9375 55.917969 118.523438 55.851562 C 118.324219 55.816406 118.121094 55.867188 117.957031 55.988281 C 117.789062 56.105469 117.679688 56.28125 117.648438 56.484375 L 117.105469 59.894531 C 117.039062 60.308594 117.320312 60.703125 117.738281 60.769531 " fill-opacity="1" fill-rule="nonzero"/><path fill="#ffde59" d="M 116.648438 67.589844 C 116.691406 67.597656 116.730469 67.601562 116.769531 67.601562 C 117.148438 67.601562 117.464844 67.328125 117.523438 66.957031 L 118.070312 63.546875 C 118.132812 63.128906 117.851562 62.738281 117.433594 62.671875 C 117.019531 62.605469 116.625 62.890625 116.5625 63.304688 L 116.015625 66.714844 C 115.949219 67.132812 116.234375 67.523438 116.648438 67.589844 " fill-opacity="1" fill-rule="nonzero"/><g transform="matrix(1, 0, 0, 1, 192, 56)"><g clip-path="url(#c34363d48a)"><g fill="#ffffff" fill-opacity="1"><g transform="translate(0.480609, 46.435516)"><g><path d="M 26.140625 -2.4375 L 26.140625 0 L 4.734375 0 L 4.734375 -33.046875 L 7.703125 -33.046875 L 7.703125 -2.4375 Z M 26.140625 -2.4375 "/></g></g></g><g fill="#ffffff" fill-opacity="1"><g transform="translate(27.393141, 46.435516)"><g><path d="M 27.921875 -33.046875 L 27.921875 -11.828125 C 27.921875 -10.929688 27.875 -9.910156 27.78125 -8.765625 C 27.644531 -6.972656 27.140625 -5.363281 26.265625 -3.9375 C 25.390625 -2.519531 24.117188 -1.394531 22.453125 -0.5625 C 20.796875 0.257812 18.707031 0.671875 16.1875 0.671875 C 13.664062 0.671875 11.566406 0.257812 9.890625 -0.5625 C 8.210938 -1.394531 6.941406 -2.519531 6.078125 -3.9375 C 5.222656 -5.363281 4.710938 -6.972656 4.546875 -8.765625 C 4.515625 -9.335938 4.488281 -9.867188 4.46875 -10.359375 C 4.457031 -10.859375 4.453125 -11.347656 4.453125 -11.828125 L 4.453125 -33.046875 L 7.421875 -33.046875 L 7.421875 -11.96875 C 7.421875 -11.457031 7.425781 -10.953125 7.4375 -10.453125 C 7.457031 -9.960938 7.484375 -9.492188 7.515625 -9.046875 C 7.710938 -6.972656 8.507812 -5.234375 9.90625 -3.828125 C 11.3125 -2.421875 13.40625 -1.71875 16.1875 -1.71875 C 18.9375 -1.71875 21.007812 -2.421875 22.40625 -3.828125 C 23.8125 -5.234375 24.613281 -6.972656 24.8125 -9.046875 C 24.90625 -9.972656 24.953125 -10.945312 24.953125 -11.96875 L 24.953125 -33.046875 Z M 27.921875 -33.046875 "/></g></g></g><g fill="#ffffff" fill-opacity="1"><g transform="translate(58.567611, 46.435516)"><g><path d="M 36.59375 -33.046875 L 36.59375 0 L 33.625 0 L 33.625 -17.8125 C 33.625 -19.882812 33.628906 -22.019531 33.640625 -24.21875 C 33.660156 -26.425781 33.6875 -28.488281 33.71875 -30.40625 C 33.070312 -28.488281 32.347656 -26.425781 31.546875 -24.21875 C 30.753906 -22.019531 29.976562 -19.898438 29.21875 -17.859375 L 22.515625 0 L 18.765625 0 L 12.015625 -17.90625 C 11.285156 -19.914062 10.53125 -22.019531 9.75 -24.21875 C 8.96875 -26.425781 8.253906 -28.472656 7.609375 -30.359375 C 7.671875 -28.441406 7.703125 -26.390625 7.703125 -24.203125 C 7.703125 -22.015625 7.703125 -19.882812 7.703125 -17.8125 L 7.703125 0 L 4.734375 0 L 4.734375 -33.046875 L 9.578125 -33.046875 L 20.734375 -2.484375 L 31.84375 -33.046875 Z M 36.59375 -33.046875 "/></g></g></g><g fill="#ffffff" fill-opacity="1"><g transform="translate(98.744848, 46.435516)"><g><path d="M 7.703125 0 L 4.734375 0 L 4.734375 -33.046875 L 7.703125 -33.046875 Z M 7.703125 0 "/></g></g></g><g fill="#ffffff" fill-opacity="1"><g transform="translate(110.046193, 46.435516)"><g><path d="M 29.3125 0 L 24.765625 0 L 7.5625 -30.171875 C 7.625 -28.128906 7.660156 -25.945312 7.671875 -23.625 C 7.691406 -21.3125 7.703125 -19.117188 7.703125 -17.046875 L 7.703125 0 L 4.734375 0 L 4.734375 -33.046875 L 9.25 -33.046875 L 26.484375 -2.875 C 26.453125 -4.945312 26.421875 -7.140625 26.390625 -9.453125 C 26.359375 -11.773438 26.34375 -13.957031 26.34375 -16 L 26.34375 -33.046875 L 29.265625 -33.046875 Z M 29.3125 0 "/></g></g></g><g fill="#ffffff" fill-opacity="1"><g transform="translate(142.992487, 46.435516)"><g><path d="M 7.703125 0 L 4.734375 0 L 4.734375 -33.046875 L 7.703125 -33.046875 Z M 7.703125 0 "/></g></g></g><g fill="#ffffff" fill-opacity="1"><g transform="translate(154.293832, 46.435516)"><g/></g></g><g fill="#ffffff" fill-opacity="1"><g transform="translate(164.062792, 46.435516)"><g><path d="M 14.515625 -33.71875 C 16.710938 -33.71875 18.566406 -33.289062 20.078125 -32.4375 C 21.597656 -31.59375 22.78125 -30.453125 23.625 -29.015625 C 24.476562 -27.578125 25 -25.96875 25.1875 -24.1875 L 22.078125 -24.1875 C 21.785156 -26.445312 20.953125 -28.203125 19.578125 -29.453125 C 18.210938 -30.703125 16.441406 -31.328125 14.265625 -31.328125 C 13.023438 -31.328125 11.84375 -31.109375 10.71875 -30.671875 C 9.601562 -30.242188 8.703125 -29.585938 8.015625 -28.703125 C 7.328125 -27.828125 6.984375 -26.738281 6.984375 -25.4375 C 6.984375 -24.09375 7.253906 -22.992188 7.796875 -22.140625 C 8.347656 -21.296875 9.210938 -20.59375 10.390625 -20.03125 C 11.578125 -19.476562 13.109375 -18.960938 14.984375 -18.484375 C 18.535156 -17.585938 21.195312 -16.390625 22.96875 -14.890625 C 24.738281 -13.390625 25.625 -11.269531 25.625 -8.53125 C 25.625 -6.707031 25.132812 -5.109375 24.15625 -3.734375 C 23.1875 -2.359375 21.863281 -1.28125 20.1875 -0.5 C 18.507812 0.28125 16.617188 0.671875 14.515625 0.671875 C 11.160156 0.671875 8.363281 -0.15625 6.125 -1.8125 C 3.894531 -3.476562 2.601562 -5.90625 2.25 -9.09375 L 5.40625 -9.09375 C 5.820312 -6.738281 6.867188 -4.921875 8.546875 -3.640625 C 10.222656 -2.359375 12.242188 -1.71875 14.609375 -1.71875 C 16.078125 -1.71875 17.398438 -1.976562 18.578125 -2.5 C 19.765625 -3.03125 20.707031 -3.765625 21.40625 -4.703125 C 22.101562 -5.648438 22.453125 -6.765625 22.453125 -8.046875 C 22.453125 -10.179688 21.78125 -11.789062 20.4375 -12.875 C 19.101562 -13.96875 16.890625 -14.894531 13.796875 -15.65625 C 11.710938 -16.195312 9.921875 -16.832031 8.421875 -17.5625 C 6.921875 -18.300781 5.769531 -19.253906 4.96875 -20.421875 C 4.175781 -21.585938 3.78125 -23.050781 3.78125 -24.8125 C 3.78125 -26.59375 4.265625 -28.15625 5.234375 -29.5 C 6.210938 -30.84375 7.515625 -31.878906 9.140625 -32.609375 C 10.773438 -33.347656 12.566406 -33.71875 14.515625 -33.71875 Z M 14.515625 -33.71875 "/></g></g></g><g fill="#ffffff" fill-opacity="1"><g transform="translate(191.645736, 46.435516)"><g><path d="M 26.140625 -2.4375 L 26.140625 0 L 4.734375 0 L 4.734375 -33.046875 L 25.671875 -33.046875 L 25.671875 -30.609375 L 7.703125 -30.609375 L 7.703125 -17.765625 L 24.421875 -17.765625 L 24.421875 -15.28125 L 7.703125 -15.28125 L 7.703125 -2.4375 Z M 26.140625 -2.4375 "/></g></g></g><g fill="#ffffff" fill-opacity="1"><g transform="translate(219.228681, 46.435516)"><g><path d="M 18.765625 -15.46875 L 30.75 -15.46875 L 30.75 0 L 28.0625 0 L 28.0625 -6.796875 L 26.765625 -3.828125 C 25.679688 -2.296875 24.289062 -1.160156 22.59375 -0.421875 C 20.90625 0.304688 19.070312 0.671875 17.09375 0.671875 C 14.0625 0.671875 11.441406 -0.0507812 9.234375 -1.5 C 7.035156 -2.957031 5.335938 -4.960938 4.140625 -7.515625 C 2.941406 -10.066406 2.34375 -13.019531 2.34375 -16.375 C 2.34375 -19.757812 3 -22.753906 4.3125 -25.359375 C 5.625 -27.960938 7.453125 -30.003906 9.796875 -31.484375 C 12.140625 -32.972656 14.828125 -33.71875 17.859375 -33.71875 C 20.515625 -33.71875 22.757812 -33.238281 24.59375 -32.28125 C 26.425781 -31.320312 27.875 -30.019531 28.9375 -28.375 C 30.007812 -26.726562 30.691406 -24.851562 30.984375 -22.75 L 31.03125 -22.265625 L 28.0625 -22.265625 L 27.96875 -22.75 C 27.457031 -25.269531 26.363281 -27.328125 24.6875 -28.921875 C 23.007812 -30.523438 20.703125 -31.328125 17.765625 -31.328125 C 15.460938 -31.328125 13.394531 -30.71875 11.5625 -29.5 C 9.726562 -28.289062 8.285156 -26.578125 7.234375 -24.359375 C 6.179688 -22.140625 5.65625 -19.523438 5.65625 -16.515625 C 5.65625 -13.453125 6.15625 -10.816406 7.15625 -8.609375 C 8.164062 -6.410156 9.546875 -4.710938 11.296875 -3.515625 C 13.054688 -2.316406 15.050781 -1.71875 17.28125 -1.71875 C 19.039062 -1.71875 20.71875 -2.140625 22.3125 -2.984375 C 23.914062 -3.835938 25.226562 -5.101562 26.25 -6.78125 C 27.269531 -8.457031 27.78125 -10.539062 27.78125 -13.03125 L 18.765625 -13.03125 Z M 18.765625 -15.46875 "/></g></g></g><g fill="#ffffff" fill-opacity="1"><g transform="translate(252.941168, 46.435516)"><g><path d="M 27.921875 -33.046875 L 27.921875 -11.828125 C 27.921875 -10.929688 27.875 -9.910156 27.78125 -8.765625 C 27.644531 -6.972656 27.140625 -5.363281 26.265625 -3.9375 C 25.390625 -2.519531 24.117188 -1.394531 22.453125 -0.5625 C 20.796875 0.257812 18.707031 0.671875 16.1875 0.671875 C 13.664062 0.671875 11.566406 0.257812 9.890625 -0.5625 C 8.210938 -1.394531 6.941406 -2.519531 6.078125 -3.9375 C 5.222656 -5.363281 4.710938 -6.972656 4.546875 -8.765625 C 4.515625 -9.335938 4.488281 -9.867188 4.46875 -10.359375 C 4.457031 -10.859375 4.453125 -11.347656 4.453125 -11.828125 L 4.453125 -33.046875 L 7.421875 -33.046875 L 7.421875 -11.96875 C 7.421875 -11.457031 7.425781 -10.953125 7.4375 -10.453125 C 7.457031 -9.960938 7.484375 -9.492188 7.515625 -9.046875 C 7.710938 -6.972656 8.507812 -5.234375 9.90625 -3.828125 C 11.3125 -2.421875 13.40625 -1.71875 16.1875 -1.71875 C 18.9375 -1.71875 21.007812 -2.421875 22.40625 -3.828125 C 23.8125 -5.234375 24.613281 -6.972656 24.8125 -9.046875 C 24.90625 -9.972656 24.953125 -10.945312 24.953125 -11.96875 L 24.953125 -33.046875 Z M 27.921875 -33.046875 "/></g></g></g><g fill="#ffffff" fill-opacity="1"><g transform="translate(284.11565, 46.435516)"><g><path d="M 25.4375 -8.8125 C 25.6875 -6.539062 25.96875 -4.734375 26.28125 -3.390625 C 26.601562 -2.054688 27.054688 -0.925781 27.640625 0 L 24.328125 0 C 23.910156 -1.050781 23.554688 -2.191406 23.265625 -3.421875 C 22.984375 -4.648438 22.710938 -6.335938 22.453125 -8.484375 C 22.234375 -10.234375 21.722656 -11.710938 20.921875 -12.921875 C 20.128906 -14.140625 18.835938 -14.796875 17.046875 -14.890625 C 16.628906 -14.921875 16.1875 -14.9375 15.71875 -14.9375 C 15.257812 -14.9375 14.84375 -14.9375 14.46875 -14.9375 L 7.703125 -14.9375 L 7.703125 0 L 4.734375 0 L 4.734375 -33.046875 L 14.46875 -33.046875 C 15.289062 -33.046875 16.050781 -33.035156 16.75 -33.015625 C 17.457031 -33.003906 18.195312 -32.953125 18.96875 -32.859375 C 21.425781 -32.535156 23.394531 -31.6875 24.875 -30.3125 C 26.363281 -28.9375 27.109375 -26.925781 27.109375 -24.28125 C 27.109375 -22.113281 26.5 -20.375 25.28125 -19.0625 C 24.070312 -17.75 22.601562 -16.867188 20.875 -16.421875 C 22.28125 -15.847656 23.347656 -14.863281 24.078125 -13.46875 C 24.816406 -12.082031 25.269531 -10.53125 25.4375 -8.8125 Z M 7.703125 -17.4375 L 14.515625 -17.4375 C 15.242188 -17.4375 15.847656 -17.441406 16.328125 -17.453125 C 16.804688 -17.472656 17.316406 -17.5 17.859375 -17.53125 C 19.679688 -17.6875 21.140625 -18.320312 22.234375 -19.4375 C 23.335938 -20.5625 23.890625 -22.097656 23.890625 -24.046875 C 23.890625 -25.992188 23.394531 -27.46875 22.40625 -28.46875 C 21.414062 -29.476562 20.03125 -30.109375 18.25 -30.359375 C 17.226562 -30.484375 15.96875 -30.546875 14.46875 -30.546875 L 7.703125 -30.546875 Z M 7.703125 -17.4375 "/></g></g></g><g fill="#ffffff" fill-opacity="1"><g transform="translate(312.895749, 46.435516)"><g><path d="M 17.671875 -33.71875 C 20.898438 -33.71875 23.660156 -32.984375 25.953125 -31.515625 C 28.253906 -30.046875 30.007812 -28.015625 31.21875 -25.421875 C 32.4375 -22.835938 33.046875 -19.867188 33.046875 -16.515625 C 33.046875 -13.203125 32.4375 -10.25 31.21875 -7.65625 C 30.007812 -5.070312 28.253906 -3.035156 25.953125 -1.546875 C 23.660156 -0.0664062 20.898438 0.671875 17.671875 0.671875 C 14.472656 0.671875 11.722656 -0.0664062 9.421875 -1.546875 C 7.128906 -3.035156 5.375 -5.070312 4.15625 -7.65625 C 2.945312 -10.25 2.34375 -13.203125 2.34375 -16.515625 C 2.34375 -19.867188 2.945312 -22.835938 4.15625 -25.421875 C 5.375 -28.015625 7.128906 -30.046875 9.421875 -31.515625 C 11.722656 -32.984375 14.472656 -33.71875 17.671875 -33.71875 Z M 17.671875 -1.71875 C 20.066406 -1.71875 22.164062 -2.304688 23.96875 -3.484375 C 25.769531 -4.671875 27.179688 -6.375 28.203125 -8.59375 C 29.222656 -10.8125 29.734375 -13.453125 29.734375 -16.515625 C 29.734375 -19.617188 29.222656 -22.269531 28.203125 -24.46875 C 27.179688 -26.675781 25.769531 -28.367188 23.96875 -29.546875 C 22.164062 -30.734375 20.066406 -31.328125 17.671875 -31.328125 C 15.304688 -31.328125 13.222656 -30.734375 11.421875 -29.546875 C 9.617188 -28.367188 8.207031 -26.675781 7.1875 -24.46875 C 6.164062 -22.269531 5.65625 -19.617188 5.65625 -16.515625 C 5.65625 -13.453125 6.164062 -10.8125 7.1875 -8.59375 C 8.207031 -6.375 9.617188 -4.671875 11.421875 -3.484375 C 13.222656 -2.304688 15.304688 -1.71875 17.671875 -1.71875 Z M 17.671875 -1.71875 "/></g></g></g><g fill="#ffffff" fill-opacity="1"><g transform="translate(347.75755, 46.435516)"><g><path d="M 14.515625 -33.71875 C 16.710938 -33.71875 18.566406 -33.289062 20.078125 -32.4375 C 21.597656 -31.59375 22.78125 -30.453125 23.625 -29.015625 C 24.476562 -27.578125 25 -25.96875 25.1875 -24.1875 L 22.078125 -24.1875 C 21.785156 -26.445312 20.953125 -28.203125 19.578125 -29.453125 C 18.210938 -30.703125 16.441406 -31.328125 14.265625 -31.328125 C 13.023438 -31.328125 11.84375 -31.109375 10.71875 -30.671875 C 9.601562 -30.242188 8.703125 -29.585938 8.015625 -28.703125 C 7.328125 -27.828125 6.984375 -26.738281 6.984375 -25.4375 C 6.984375 -24.09375 7.253906 -22.992188 7.796875 -22.140625 C 8.347656 -21.296875 9.210938 -20.59375 10.390625 -20.03125 C 11.578125 -19.476562 13.109375 -18.960938 14.984375 -18.484375 C 18.535156 -17.585938 21.195312 -16.390625 22.96875 -14.890625 C 24.738281 -13.390625 25.625 -11.269531 25.625 -8.53125 C 25.625 -6.707031 25.132812 -5.109375 24.15625 -3.734375 C 23.1875 -2.359375 21.863281 -1.28125 20.1875 -0.5 C 18.507812 0.28125 16.617188 0.671875 14.515625 0.671875 C 11.160156 0.671875 8.363281 -0.15625 6.125 -1.8125 C 3.894531 -3.476562 2.601562 -5.90625 2.25 -9.09375 L 5.40625 -9.09375 C 5.820312 -6.738281 6.867188 -4.921875 8.546875 -3.640625 C 10.222656 -2.359375 12.242188 -1.71875 14.609375 -1.71875 C 16.078125 -1.71875 17.398438 -1.976562 18.578125 -2.5 C 19.765625 -3.03125 20.707031 -3.765625 21.40625 -4.703125 C 22.101562 -5.648438 22.453125 -6.765625 22.453125 -8.046875 C 22.453125 -10.179688 21.78125 -11.789062 20.4375 -12.875 C 19.101562 -13.96875 16.890625 -14.894531 13.796875 -15.65625 C 11.710938 -16.195312 9.921875 -16.832031 8.421875 -17.5625 C 6.921875 -18.300781 5.769531 -19.253906 4.96875 -20.421875 C 4.175781 -21.585938 3.78125 -23.050781 3.78125 -24.8125 C 3.78125 -26.59375 4.265625 -28.15625 5.234375 -29.5 C 6.210938 -30.84375 7.515625 -31.878906 9.140625 -32.609375 C 10.773438 -33.347656 12.566406 -33.71875 14.515625 -33.71875 Z M 14.515625 -33.71875 "/></g></g></g></g></g></svg>